<svg fill="#1BA0D7" role="img" viewBox="0 0 24 24" xmlns="http://www.w3.org/2000/svg"><title>Cisco NSO</title><path d="M16.331 18.171V17.06l-.022.01c-.25.121-.522.19-.801.203a1.186 1.186 0 01-.806-.237 1.038 1.038 0 01-.352-.498 1.21 1.21 0 01-.023-.667c.052-.225.178-.426.357-.569.16-.134.355-.218.562-.242a1.85 1.85 0 011.061.198l.024.013v-1.117l-.051-.014a2.862 2.862 0 00-1.011-.132 2.34 2.34 0 00-.903.206c-.287.132-.54.327-.739.571a2.221 2.221 0 00-.04 2.705c.295.378.709.645 1.175.756.491.12 1.006.102 1.487-.052l.082-.023M5.336 18.171V17.06l-.022.01c-.25.121-.522.19-.801.203a1.183 1.183 0 01-.806-.237 1.03 1.03 0 01-.351-.498 1.202 1.202 0 01-.024-.667c.052-.225.177-.426.357-.569.16-.134.355-.218.562-.242a1.85 1.85 0 011.061.198l.024.013v-1.117l-.051-.014a2.862 2.862 0 00-1.011-.132 2.344 2.344 0 00-.903.206 2.08 2.08 0 00-.74.571 2.224 2.224 0 00-.041 2.705 2.11 2.11 0 001.176.756c.491.12 1.005.102 1.487-.052l.083-.023M17.231 11.771a.521.521 0 001.039 0V6.17a.52.52 0 00-1.039 0v5.601M14.393 10.728a.521.521 0 001.04 0V8.139a.52.52 0 00-1.039 0v2.589M11.494 10.728a.522.522 0 001.039 0V9.573a.52.52 0 00-1.039 0v1.155M8.624 10.728a.52.52 0 001.039 0V8.139a.52.52 0 00-1.039 0v2.589M5.737 11.771a.52.52 0 001.039 0V6.17a.52.52 0 00-1.039 0v5.601"/></svg>
